<?xml version="1.0" standalone="no"?><!DOCTYPE svg PUBLIC "-//W3C//DTD SVG 1.1//EN" "http://www.w3.org/Graphics/SVG/1.1/DTD/svg11.dtd"><svg t="1646019010472" class="icon" viewBox="0 0 1024 1024" version="1.1" xmlns="http://www.w3.org/2000/svg" p-id="19198" xmlns:xlink="http://www.w3.org/1999/xlink" width="200" height="200"><defs><style type="text/css"></style></defs><path d="M213.333333 256h384V170.666667H298.666667a42.666667 42.666667 0 1 1 0-85.333334h341.333333a42.666667 42.666667 0 0 1 42.666667 42.666667v170.666667a42.666667 42.666667 0 0 1-42.666667 42.666666H213.333333v213.333334h554.666667v-85.333334H298.666667a42.666667 42.666667 0 0 1 0-85.333333h512a42.666667 42.666667 0 0 1 42.666666 42.666667v170.666666a42.666667 42.666667 0 0 1-42.666666 42.666667H213.333333v213.333333h682.666667v-85.333333H298.666667a42.666667 42.666667 0 0 1 0-85.333333h640a42.666667 42.666667 0 0 1 42.666666 42.666666v170.666667a42.666667 42.666667 0 0 1-42.666666 42.666667H213.333333a42.666667 42.666667 0 0 1-85.333333 0V85.333333a42.666667 42.666667 0 1 1 85.333333 0v170.666667z" p-id="19199" fill="#ff794a"></path></svg>