<?xml version="1.0" standalone="no"?><!DOCTYPE svg PUBLIC "-//W3C//DTD SVG 1.1//EN" "http://www.w3.org/Graphics/SVG/1.1/DTD/svg11.dtd"><svg t="1646015666404" class="icon" viewBox="0 0 1024 1024" version="1.1" xmlns="http://www.w3.org/2000/svg" p-id="2926" xmlns:xlink="http://www.w3.org/1999/xlink" width="200" height="200"><defs><style type="text/css"></style></defs><path d="M981.677653 85.333333a42.666667 42.666667 0 0 1 36.394667 64.896l-468.906667 768a42.666667 42.666667 0 0 1-36.437333 20.437334l-5.632-0.341334a42.666667 42.666667 0 0 1-31.146667-20.053333l-469.333333-768A42.666667 42.666667 0 0 1 43.010987 85.333333z m-349.013333 532.224H392.15232l120.362667 196.864 120.149333-196.864z m130.261333-213.333333H261.762987l78.250666 128h344.746667l78.165333-128zM905.602987 170.666667H119.085653l90.538667 148.224h605.44L905.602987 170.666667z" p-id="2927" fill="#ff794a"></path></svg>