<?xml version="1.0" standalone="no"?><!DOCTYPE svg PUBLIC "-//W3C//DTD SVG 1.1//EN" "http://www.w3.org/Graphics/SVG/1.1/DTD/svg11.dtd"><svg t="1646016296270" class="icon" viewBox="0 0 1024 1024" version="1.1" xmlns="http://www.w3.org/2000/svg" p-id="6825" xmlns:xlink="http://www.w3.org/1999/xlink" width="200" height="200"><defs><style type="text/css"></style></defs><path d="M977.709589 946.849315h-28.054794V234.257534c0-19.638356-15.430137-35.068493-35.068494-35.068493H737.841096c-19.638356 0-35.068493 15.430137-35.068493 35.068493v712.591781h-63.123288V51.90137c0-19.638356-15.430137-35.068493-35.068493-35.068493H427.835616c-19.638356 0-35.068493 15.430137-35.068493 35.068493v894.947945h-70.136986V396.975342c0-19.638356-15.430137-35.068493-35.068493-35.068493H110.816438c-19.638356 0-35.068493 15.430137-35.068493 35.068493v549.873973H54.706849c-19.638356 0-35.068493 15.430137-35.068493 35.068493s15.430137 35.068493 35.068493 35.068493h924.40548c19.638356 0 35.068493-15.430137 35.068493-35.068493s-16.832877-35.068493-36.471233-35.068493z m-831.824657 0V432.043836H252.493151v514.805479h-106.608219z m317.019178 0V86.969863h106.608219v859.879452H462.90411z m310.005479 0V269.326027h106.608219v677.523288h-106.608219z" p-id="6826" fill="#ff794a"></path></svg>