<?xml version="1.0" standalone="no"?><!DOCTYPE svg PUBLIC "-//W3C//DTD SVG 1.1//EN" "http://www.w3.org/Graphics/SVG/1.1/DTD/svg11.dtd"><svg t="1646018831059" class="icon" viewBox="0 0 1024 1024" version="1.1" xmlns="http://www.w3.org/2000/svg" p-id="15216" xmlns:xlink="http://www.w3.org/1999/xlink" width="200" height="200"><defs><style type="text/css"></style></defs><path d="M837.312 192c41.28 0 74.688 28.672 74.688 64v512c0 35.328-33.408 64-74.688 64h-74.624c-41.28 0-74.688-28.672-74.688-64V256c0-35.328 33.408-64 74.688-64h74.624z m10.688 64h-96v512h96V256zM549.312 256c41.28 0 74.688 28.672 74.688 64v256c0 35.328-33.408 64-74.688 64H474.688c-41.28 0-74.688-28.672-74.688-64V320c0-35.328 33.408-64 74.688-64h74.624z m-288-192c41.28 0 74.688 28.672 74.688 64v384c0 35.328-33.408 64-74.688 64H186.688C145.408 576 112 547.328 112 512V128c0-35.328 33.408-64 74.688-64h74.624zM560 320h-96v256h96V320z m-288-192h-96v384h96V128zM923.456 896c20.16 0 36.544 14.336 36.544 32 0 15.68-12.928 28.8-30.016 31.488L923.52 960H100.48C80.384 960 64 945.664 64 928c0-15.68 12.928-28.8 30.016-31.488L100.48 896H923.52z" p-id="15217" fill="#ff794a"></path></svg>